# xmcd
#
# Track frame offsets:
#	150
#	15517
#	31540
#	45282
#	61830
#	78230
#	94030
#	108995
#	122572
#	135987
#
# Disc length: 2125 seconds
#
# Revision: 0
# Processed by: cddbd v1.4PL0 Copyright (c) Steve Scherf et al.
# Submitted via: dBpowerAMP V4.0
#
DISCID=62084b0a
DTITLE=Various Artist - Absolute Blues 2
DYEAR=1900
DGENRE=Blues
TTITLE0=downchild blues band- when i say jump
TTITLE1=maria muldaur-do your duty
TTITLE2=bobby charles-not ready yet
TTITLE3=the holmes brothers-tell me again
TTITLE4=amous garret,doug sham,gean taylor band-sure is a good thing
TTITLE5=professor longhair-tipitina
TTITLE6=dutch mason-i must be crazy
TTITLE7=long john baldry and kathi mcdonald-black girl
TTITLE8=paul james-red hot mama
TTITLE9=johnny shines-slavery time breakdown
EXTD=
EXTT0=
EXTT1=
EXTT2=
EXTT3=
EXTT4=
EXTT5=
EXTT6=
EXTT7=
EXTT8=
EXTT9=
PLAYORDER=
